<svg width="200" height="60" viewBox="0 0 200 60" fill="none" xmlns="http://www.w3.org/2000/svg">
  <!-- Background gradient -->
  <defs>
    <linearGradient id="logoGradient" x1="0%" y1="0%" x2="100%" y2="100%">
      <stop offset="0%" style="stop-color:#6b63ff;stop-opacity:1" />
      <stop offset="100%" style="stop-color:#00d4ff;stop-opacity:1" />
    </linearGradient>
    <linearGradient id="textGradient" x1="0%" y1="0%" x2="100%" y2="0%">
      <stop offset="0%" style="stop-color:#e8ecff;stop-opacity:1" />
      <stop offset="100%" style="stop-color:#ffffff;stop-opacity:1" />
    </linearGradient>
  </defs>
  
  <!-- Shield icon -->
  <g transform="translate(10, 10)">
    <!-- Outer shield -->
    <path d="M20 5 L35 10 L35 25 C35 32 27.5 37 20 40 C12.5 37 5 32 5 25 L5 10 L20 5 Z" 
          fill="url(#logoGradient)" 
          stroke="#ffffff" 
          stroke-width="1"/>
    
    <!-- Inner shield pattern -->
    <path d="M20 8 L30 12 L30 24 C30 29 24 32.5 20 35 C16 32.5 10 29 10 24 L10 12 L20 8 Z" 
          fill="none" 
          stroke="#ffffff" 
          stroke-width="1" 
          opacity="0.6"/>
    
    <!-- AI circuit pattern -->
    <circle cx="20" cy="20" r="3" fill="#ffffff" opacity="0.8"/>
    <circle cx="15" cy="16" r="1.5" fill="#ffffff" opacity="0.6"/>
    <circle cx="25" cy="16" r="1.5" fill="#ffffff" opacity="0.6"/>
    <circle cx="15" cy="24" r="1.5" fill="#ffffff" opacity="0.6"/>
    <circle cx="25" cy="24" r="1.5" filltf" opacity="0.6"/>
    
    <!-- Connecting lines -->
    <line x1="17.5" y1="17.5" x2="18.5" y2="18.5" stroke="#ffffff" he-width="1" opacity="0.4"/>
    <line x1="22.5" y1="17.5" x2="21.5" y2="18.5" stroke="#ffffff" stroke-width="1" opacity="0.4"/>
    <line x1="17.5" y1="22.5" x2="18.5" ye 5" stroke="#ffffff" stroke-width="1" opacity="0.4"/>
    <line x1="22.5" y1="22.5" x2="21.5" y2="21.5" stroke="#ffffff" stroke-width="1" opacity="0.4"/>
  </g>
  
  <!-- VeilNet text -->
  <text x="55" y="25" font-family="'Bitcount Single', monospace" font-size="18" font-weight="700" fill="url(#textGradient)">
    VeilNet
  </text>
  
  <!-- AI text -->
  <text x="55" y="42" font-family="'Bitcount Single', monospace" font-size="12" font-weight="400" fill="#8b92b8">
    AI
  </text>
  
  <!-- Tagline -->
  <text x="75" y="42" font-family="'Bitcount Single', monospace" font-size="8" font-weight="300" fill="#6b7280">
    Private AI Inference
  </text>
</svg>